<svg xmlns="http://www.w3.org/2000/svg" width="28.993" height="28.992" viewBox="0 0 28.993 28.992">
	<g id="layer1" transform="translate(1.5 1.5)">
		<path id="path2376" d="M566.507,76.068a3.8,3.8,0,0,1-2.7-1.118l-3.9-3.9a.741.741,0,0,0-1.024,0l-3.913,3.913a3.8,3.8,0,0,1-2.7,1.118H551.5l4.938,4.938a3.949,3.949,0,0,0,5.584,0l4.952-4.952Z" transform="translate(-546.236 -56.183)" fill="none" stroke="#707070" stroke-width="3"/>
		<path id="path2380" d="M552.272,32.649a3.8,3.8,0,0,1,2.7,1.118l3.913,3.914a.725.725,0,0,0,1.024,0l3.9-3.9a3.8,3.8,0,0,1,2.7-1.118h.47l-4.952-4.952a3.949,3.949,0,0,0-5.584,0L551.5,32.649Z" transform="translate(-546.237 -26.554)" fill="none" stroke="#707070" stroke-width="3"/>
		<path id="path2384" d="M560.43,51.308l-2.992-2.992a.57.57,0,0,1-.213.043h-1.361a2.689,2.689,0,0,0-1.889.783l-3.9,3.9a1.873,1.873,0,0,1-2.646,0l-3.913-3.913a2.689,2.689,0,0,0-1.889-.783h-1.673a.567.567,0,0,1-.2-.041l-3,3a3.949,3.949,0,0,0,0,5.584l3,3a.569.569,0,0,1,.2-.041h1.673a2.689,2.689,0,0,0,1.889-.783l3.913-3.913a1.917,1.917,0,0,1,2.647,0l3.9,3.9a2.689,2.689,0,0,0,1.889.783h1.361a.57.57,0,0,1,.213.043l2.992-2.992a3.949,3.949,0,0,0,0-5.584" transform="translate(-535.594 -41.104)" fill="none" stroke="#707070" stroke-width="3"/>
	</g>
</svg>